<svg width="32" height="32" viewBox="0 0 32 32" fill="none" xmlns="http://www.w3.org/2000/svg">
<mask id="mask0_34_459" style="mask-type:alpha" maskUnits="userSpaceOnUse" x="0" y="0" width="32" height="32">
<rect width="31.4282" height="31.4282" fill="#D9D9D9"/>
</mask>
<g mask="url(#mask0_34_459)">
<path d="M26.1246 27.4998C23.3092 27.4998 20.5649 26.8721 17.8917 25.6168C15.2177 24.3623 12.8497 22.7035 10.7877 20.6406C8.72475 18.5786 7.06605 16.2106 5.81154 13.5366C4.55616 10.8634 3.92847 8.11913 3.92847 5.30369C3.92847 4.91084 4.05942 4.58346 4.32132 4.32156C4.58322 4.05966 4.9106 3.92871 5.30345 3.92871H10.607C10.9125 3.92871 11.1853 4.02692 11.4254 4.22335C11.6655 4.41978 11.8073 4.67076 11.851 4.97632L12.7022 9.55959C12.7458 9.86514 12.7406 10.1432 12.6864 10.3937C12.6314 10.6452 12.5057 10.8691 12.3093 11.0655L9.16649 14.2738C10.0831 15.8452 11.229 17.3184 12.6039 18.6934C13.9789 20.0684 15.4958 21.2578 17.1545 22.2618L20.2318 19.1845C20.4283 18.988 20.6849 18.8405 21.0018 18.7419C21.3178 18.6441 21.6286 18.617 21.9342 18.6607L26.452 19.5773C26.7575 19.6428 27.0085 19.7899 27.2049 20.0186C27.4014 20.2482 27.4996 20.5158 27.4996 20.8213V26.1248C27.4996 26.5177 27.3686 26.8451 27.1067 27.107C26.8448 27.3689 26.5175 27.4998 26.1246 27.4998Z" fill="#E6E6E6" fill-opacity="0.51"/>
</g>
</svg>
