<svg width="28" height="25" viewBox="0 0 28 25" fill="none" xmlns="http://www.w3.org/2000/svg">
<rect x="0.892931" y="2.96288" width="25.1559" height="21.2253" rx="5.89592" transform="rotate(-4.11839 0.892931 2.96288)" fill="#C6A45A" fill-opacity="0.06"/>
<rect x="0.892931" y="2.96288" width="25.1559" height="21.2253" rx="5.89592" transform="rotate(-4.11839 0.892931 2.96288)" stroke="#C6A45A" stroke-width="0.786122"/>
<g clip-path="url(#clip0_34_128)">
<path d="M14.5508 12.1164L12.9974 13.6825L13.649 15.8005C13.6834 15.9112 13.6844 16.0296 13.6518 16.1408C13.6193 16.2521 13.5547 16.3513 13.4661 16.4261C13.3775 16.5008 13.2688 16.5478 13.1537 16.5611C13.0385 16.5744 12.922 16.5535 12.8187 16.5009L10.8581 15.4968L9.06569 16.7711C8.97096 16.838 8.85864 16.8754 8.74277 16.8787C8.62689 16.882 8.51261 16.8511 8.41421 16.7898C8.31582 16.7285 8.23766 16.6396 8.18953 16.5342C8.14139 16.4287 8.12541 16.3114 8.14358 16.1969L8.48447 14.0096L6.72216 12.6801C6.62902 12.6108 6.55842 12.5155 6.51921 12.4063C6.48001 12.297 6.47394 12.1786 6.50176 12.0658C6.52959 11.9531 6.59008 11.8511 6.67564 11.7727C6.76121 11.6942 6.86803 11.6427 6.98273 11.6247L9.15452 11.2781L9.86108 9.18192C9.89794 9.07194 9.96651 8.97534 10.0582 8.90426C10.1498 8.83318 10.2605 8.79081 10.3761 8.78248C10.4918 8.77415 10.6074 8.80023 10.7083 8.85745C10.8092 8.91466 10.8909 9.00045 10.9431 9.10401L11.9453 11.0771L14.1436 11.1091C14.2597 11.1105 14.3728 11.1461 14.4687 11.2115C14.5646 11.2769 14.6391 11.3692 14.6828 11.4768C14.7265 11.5843 14.7374 11.7024 14.7143 11.8162C14.6911 11.93 14.6349 12.0344 14.5527 12.1163L14.5508 12.1164Z" fill="#C6A45A"/>
</g>
<path d="M19.815 16.0558C21.2923 15.9494 22.0397 14.9025 21.9577 13.764C21.8798 12.6819 21.0472 11.7583 19.6453 11.8592C19.2125 11.8904 18.8173 12.0512 18.4801 12.3593L18.6303 10.5042L21.3401 10.309L21.2791 9.46222L17.8825 9.70679L17.5733 13.2947L18.3625 13.4838C18.5927 13.0037 18.9992 12.738 19.5638 12.6974C20.4106 12.6364 20.9224 13.1765 20.9698 13.8351C21.022 14.5596 20.6284 15.1365 19.7534 15.1995C19.0477 15.2503 18.5011 14.883 18.3864 14.2103L17.4361 14.2787C17.5644 15.4044 18.573 16.1452 19.815 16.0558Z" fill="#C6A45A"/>
<defs>
<clipPath id="clip0_34_128">
<rect width="9.43347" height="9.43347" fill="white" transform="translate(5.62891 8.53308) rotate(-4.11839)"/>
</clipPath>
</defs>
</svg>
