<svg width="32" height="32" viewBox="0 0 32 32" fill="none" xmlns="http://www.w3.org/2000/svg">
<mask id="mask0_34_164" style="mask-type:alpha" maskUnits="userSpaceOnUse" x="0" y="0" width="32" height="32">
<rect x="0.22998" width="31.3509" height="31.3509" fill="#D9D9D9"/>
</mask>
<g mask="url(#mask0_34_164)">
<path d="M26.2905 27.432C23.482 27.432 20.7444 26.8059 18.0779 25.5536C15.4104 24.3022 13.0482 22.6475 10.9913 20.5897C8.93342 18.5327 7.27879 16.1705 6.02737 13.5031C4.77507 10.8365 4.14893 8.09899 4.14893 5.29047C4.14893 4.89858 4.27955 4.57201 4.54081 4.31075C4.80207 4.0495 5.12864 3.91887 5.52053 3.91887H10.811C11.1158 3.91887 11.3879 4.01684 11.6274 4.21278C11.8669 4.40873 12.0084 4.6591 12.052 4.9639L12.901 9.5359C12.9446 9.8407 12.9394 10.1181 12.8854 10.368C12.8305 10.6188 12.7051 10.8422 12.5092 11.0381L9.37407 14.2385C10.2885 15.8061 11.4315 17.2756 12.8031 18.6472C14.1747 20.0189 15.6878 21.2054 17.3424 22.2069L20.4122 19.1371C20.6081 18.9412 20.8642 18.794 21.1803 18.6956C21.4955 18.598 21.8056 18.571 22.1104 18.6146L26.6171 19.529C26.9219 19.5943 27.1722 19.741 27.3682 19.9692C27.5641 20.1982 27.6621 20.4652 27.6621 20.77V26.0604C27.6621 26.4523 27.5315 26.7789 27.2702 27.0401C27.0089 27.3014 26.6824 27.432 26.2905 27.432Z" fill="#C6A45A"/>
</g>
</svg>
