<svg width="77" height="78" viewBox="0 0 77 78" fill="none" xmlns="http://www.w3.org/2000/svg">
<path d="M65.5585 66.1806C65.1082 66.6308 64.6488 67.0673 64.1822 67.4905L9.93526 13.2435C10.3585 12.777 10.7942 12.3169 11.2445 11.8666C11.6963 11.4149 12.1581 10.9784 12.6263 10.5539L66.8725 64.8002C66.448 65.2683 66.0102 65.7288 65.5585 66.1806ZM61.4532 69.7444C60.4122 70.5276 59.3408 71.2513 58.2429 71.9147L5.51101 19.1828C6.17448 18.0849 6.8981 17.0136 7.68136 15.9725L61.4532 69.7444ZM15.3546 8.30069C16.3983 7.51571 17.4724 6.79082 18.5731 6.1262L71.3002 58.8533C70.6356 59.954 69.9107 61.0282 69.1258 62.0719L15.3546 8.30069ZM55.0078 73.6625C53.7636 74.259 52.4948 74.7863 51.2057 75.2411L2.18471 26.22C2.6394 24.931 3.16751 23.6628 3.76396 22.4187L55.0078 73.6625ZM21.8097 4.37984C23.0487 3.78645 24.3117 3.26103 25.5952 2.80818L74.6176 51.8306C74.1647 53.1142 73.6401 54.3777 73.0466 55.6168L21.8097 4.37984ZM29.4428 1.67433C30.9609 1.31172 32.4966 1.04258 34.0411 0.867091L76.5587 43.3846C76.3832 44.9291 76.114 46.4648 75.7514 47.9829L29.4428 1.67433ZM47.3567 76.3749C45.842 76.7365 44.3097 77.0047 42.7688 77.1801L0.245686 34.657C0.421041 33.116 0.689219 31.5838 1.05085 30.0691L47.3567 76.3749ZM38.0324 77.4252C36.0624 77.4064 34.0938 77.2384 32.1449 76.9184L0.508089 45.2815C0.187894 43.3324 0.0193825 41.3636 0.000546532 39.3934L38.0324 77.4252ZM38.7789 0.623333C40.7452 0.642539 42.71 0.810815 44.6553 1.13018L76.2963 32.7711C76.6155 34.7162 76.7832 36.6808 76.8024 38.6469L38.7789 0.623333ZM51.3783 2.87033C56.5543 4.72421 61.4129 7.72171 65.5585 11.8673C69.7043 16.0132 72.7023 20.8718 74.5561 26.0481L51.3783 2.87033ZM25.4205 75.1768C20.2461 73.3229 15.3891 70.3257 11.2445 66.1812C7.10006 62.0368 4.10292 57.1796 2.24893 52.0053L25.4205 75.1768Z" fill="url(#paint0_linear_34_216)"/>
<defs>
<linearGradient id="paint0_linear_34_216" x1="-10.6772" y1="84.0668" x2="66.9531" y2="8.90102" gradientUnits="userSpaceOnUse">
<stop stop-color="white" stop-opacity="0.4"/>
<stop offset="1" stop-color="#353535" stop-opacity="0"/>
</linearGradient>
</defs>
</svg>
