<svg width="79" height="80" viewBox="0 0 79 80" fill="none" xmlns="http://www.w3.org/2000/svg">
<circle cx="39.2096" cy="39.9996" r="39.1974" fill="white"/>
<g clip-path="url(#clip0_31_13)">
<path d="M54.1109 24.8433H24.3072C21.1437 24.8433 18.5789 27.4081 18.5789 30.5716V49.4276C18.5789 52.5911 21.1437 55.156 24.3072 55.156H54.1109C57.2744 55.156 59.8393 52.5911 59.8393 49.4276V30.5716C59.8393 27.4081 57.2744 24.8433 54.1109 24.8433ZM32.9367 45.2958L24.9151 52.1392C24.3493 52.6221 23.4987 52.555 23.0159 51.9886C22.533 51.4228 22.6001 50.5722 23.1666 50.0894L31.1882 43.246C31.7539 42.7631 32.6044 42.8302 33.0873 43.3967C33.5702 43.9624 33.503 44.813 32.9367 45.2958ZM39.2091 42.6941C38.1361 42.6915 37.0961 42.3349 36.283 41.6317L36.2836 41.6324L36.281 41.6304C36.2817 41.6311 36.2824 41.6311 36.283 41.6317L23.9751 30.9492C23.4126 30.461 23.3527 29.6105 23.8402 29.0488C24.3283 28.4863 25.1789 28.4264 25.7406 28.9139L38.0519 39.599C38.315 39.8332 38.7486 40.0023 39.2091 39.9996C39.6689 40.001 40.0951 39.8365 40.3727 39.5944L40.3787 39.5892L52.6774 28.9139C53.2392 28.4265 54.0898 28.4863 54.5779 29.0488C55.0653 29.6105 55.0055 30.4611 54.443 30.9493L42.1318 41.635C41.3213 42.3309 40.2826 42.6927 39.2091 42.6941ZM55.4028 51.9886C54.9199 52.555 54.0693 52.6221 53.5037 52.1392L45.4821 45.2958C44.9157 44.8129 44.8486 43.9624 45.3315 43.3967C45.8143 42.8302 46.6649 42.7632 47.2306 43.246L55.2522 50.0894C55.8186 50.5722 55.8857 51.4228 55.4028 51.9886Z" fill="#C6A45A"/>
</g>
<defs>
<clipPath id="clip0_31_13">
<rect width="41.2604" height="41.2604" fill="white" transform="translate(18.5786 19.3687)"/>
</clipPath>
</defs>
</svg>
