<svg width="44" height="44" viewBox="0 0 44 44" fill="none" xmlns="http://www.w3.org/2000/svg">
<rect width="43.8912" height="43.8912" rx="21.9456" fill="white" fill-opacity="0.1"/>
<path fill-rule="evenodd" clip-rule="evenodd" d="M19.5275 19.0949H23.0206V20.8349C23.5237 19.8341 24.8142 18.935 26.7526 18.935C30.4686 18.935 31.3508 20.927 31.3508 24.5819V31.3509H27.5887V25.4143C27.5887 23.3329 27.0855 22.1591 25.8045 22.1591C24.0279 22.1591 23.2896 23.4241 23.2896 25.4133V31.3509H19.5275V19.0949ZM13.0764 31.191H16.8385V18.935H13.0764V31.191ZM17.3774 14.9387C17.3775 15.254 17.315 15.5663 17.1934 15.8572C17.0719 16.1482 16.8937 16.412 16.6692 16.6335C16.2144 17.0856 15.5987 17.3386 14.9574 17.337C14.3173 17.3366 13.7031 17.0842 13.2476 16.6345C13.0239 16.4122 12.8463 16.1481 12.7249 15.8571C12.6036 15.5661 12.5408 15.254 12.5403 14.9387C12.5403 14.302 12.7942 13.6925 13.2485 13.2429C13.7036 12.7926 14.3181 12.5401 14.9584 12.5404C15.5998 12.5404 16.2149 12.7934 16.6692 13.2429C17.1225 13.6925 17.3774 14.302 17.3774 14.9387Z" fill="#C6A45A"/>
</svg>
