<svg width="32" height="32" viewBox="0 0 32 32" fill="none" xmlns="http://www.w3.org/2000/svg">
<mask id="mask0_34_469" style="mask-type:alpha" maskUnits="userSpaceOnUse" x="0" y="0" width="32" height="32">
<rect width="31.4282" height="31.4282" fill="#D9D9D9"/>
</mask>
<g mask="url(#mask0_34_469)">
<path d="M15.7141 15.7137C16.4343 15.7137 17.0511 15.4571 17.5644 14.9437C18.0769 14.4313 18.3331 13.8149 18.3331 13.0947C18.3331 12.3745 18.0769 11.7577 17.5644 11.2444C17.0511 10.7319 16.4343 10.4757 15.7141 10.4757C14.9939 10.4757 14.3775 10.7319 13.8651 11.2444C13.3517 11.7577 13.0951 12.3745 13.0951 13.0947C13.0951 13.8149 13.3517 14.4313 13.8651 14.9437C14.3775 15.4571 14.9939 15.7137 15.7141 15.7137ZM15.7141 28.8088C12.2002 25.8187 9.576 23.0413 7.84134 20.4764C6.1058 17.9124 5.23804 15.5391 5.23804 13.3566C5.23804 10.0828 6.29132 7.47474 8.39788 5.5323C10.5036 3.58987 12.9423 2.61865 15.7141 2.61865C18.4859 2.61865 20.9246 3.58987 23.0303 5.5323C25.1369 7.47474 26.1901 10.0828 26.1901 13.3566C26.1901 15.5391 25.3228 17.9124 23.5882 20.4764C21.8526 23.0413 19.2279 25.8187 15.7141 28.8088Z" fill="#E6E6E6" fill-opacity="0.51"/>
</g>
</svg>
