<svg width="33" height="32" viewBox="0 0 33 32" fill="none" xmlns="http://www.w3.org/2000/svg">
<mask id="mask0_34_174" style="mask-type:alpha" maskUnits="userSpaceOnUse" x="0" y="0" width="33" height="32">
<rect x="0.735352" width="31.3509" height="31.3509" fill="#D9D9D9"/>
</mask>
<g mask="url(#mask0_34_174)">
<path d="M16.4107 15.6754C17.1292 15.6754 17.7445 15.4194 18.2565 14.9073C18.7677 14.3961 19.0233 13.7813 19.0233 13.0629C19.0233 12.3444 18.7677 11.7291 18.2565 11.2171C17.7445 10.7059 17.1292 10.4503 16.4107 10.4503C15.6923 10.4503 15.0775 10.7059 14.5663 11.2171C14.0542 11.7291 13.7982 12.3444 13.7982 13.0629C13.7982 13.7813 14.0542 14.3961 14.5663 14.9073C15.0775 15.4194 15.6923 15.6754 16.4107 15.6754ZM16.4107 28.7383C12.9055 25.7556 10.2877 22.985 8.55735 20.4264C6.82608 17.8687 5.96045 15.5013 5.96045 13.3241C5.96045 10.0584 7.01114 7.45671 9.11252 5.51905C11.213 3.58139 13.6458 2.61256 16.4107 2.61256C19.1757 2.61256 21.6085 3.58139 23.709 5.51905C25.8103 7.45671 26.861 10.0584 26.861 13.3241C26.861 15.5013 25.9958 17.8687 24.2654 20.4264C22.5342 22.985 19.9159 25.7556 16.4107 28.7383Z" fill="#C6A45A"/>
</g>
</svg>
