<svg width="90" height="90" viewBox="0 0 90 90" fill="none" xmlns="http://www.w3.org/2000/svg">
<path fill-rule="evenodd" clip-rule="evenodd" d="M15 18.75C12.9289 18.75 11.25 20.4289 11.25 22.5C11.25 24.5711 12.9289 26.25 15 26.25H75C77.0711 26.25 78.75 24.5711 78.75 22.5C78.75 20.4289 77.0711 18.75 75 18.75H15ZM11.25 45C11.25 42.9289 12.9289 41.25 15 41.25H75C77.0711 41.25 78.75 42.9289 78.75 45C78.75 47.0711 77.0711 48.75 75 48.75H15C12.9289 48.75 11.25 47.0711 11.25 45ZM11.25 67.5C11.25 65.4289 12.9289 63.75 15 63.75H75C77.0711 63.75 78.75 65.4289 78.75 67.5C78.75 69.5711 77.0711 71.25 75 71.25H15C12.9289 71.25 11.25 69.5711 11.25 67.5Z" fill="white"/>
</svg>
