<svg width="52" height="52" viewBox="0 0 52 52" fill="none" xmlns="http://www.w3.org/2000/svg">
<path d="M21.8474 11.8751L23.2208 14.336C24.4602 16.5569 23.9627 19.4703 22.0106 21.4225C22.0106 21.4225 19.6429 23.7905 23.9358 28.0835C28.2274 32.3751 30.5969 30.0088 30.5969 30.0088C32.5491 28.0567 35.4624 27.5591 37.6833 28.7986L40.1442 30.172C43.4979 32.0435 43.8939 36.7465 40.9463 39.6943C39.175 41.4656 37.0051 42.8438 34.6064 42.9346C30.5686 43.0878 23.7111 42.0659 16.8323 35.1871C9.95352 28.3083 8.93158 21.4509 9.08467 17.4129C9.1756 15.0143 10.5538 12.8444 12.3251 11.0732C15.2728 8.12546 19.9758 8.52153 21.8474 11.8751Z" fill="#C6A45A"/>
</svg>
