<svg width="52" height="52" viewBox="0 0 52 52" fill="none" xmlns="http://www.w3.org/2000/svg">
<path fill-rule="evenodd" clip-rule="evenodd" d="M35.2534 15.2869C35.2534 22.0481 31.1692 27.8506 25.7307 27.8506C20.2879 27.8506 16.2079 22.0481 16.2079 15.2848C16.2079 8.52576 19.7208 4.57275 25.7307 4.57275C31.7406 4.57275 35.2534 8.52364 35.2534 15.2869ZM9.01716 42.9643C9.83189 43.9335 13.3405 46.8962 25.7307 46.8962C38.1209 46.8962 41.6273 43.9335 42.4442 42.9664C42.52 42.8735 42.5759 42.766 42.6087 42.6507C42.6414 42.5353 42.6503 42.4145 42.6346 42.2956C42.4484 40.4291 40.7682 32.083 25.7307 32.083C10.6932 32.083 9.01293 40.4291 8.82459 42.2956C8.80926 42.4146 8.81844 42.5356 8.85156 42.6509C8.88467 42.7663 8.94103 42.8715 9.01716 42.9643Z" fill="#C6A45A"/>
</svg>
