<svg width="60" height="61" viewBox="0 0 60 61" fill="none" xmlns="http://www.w3.org/2000/svg">
<path d="M30.4002 27.6792C30.1502 27.6542 29.8502 27.6542 29.5752 27.6792C23.6251 27.4792 18.9001 22.6042 18.9001 16.6042C18.9001 10.4792 23.8501 5.50415 30.0002 5.50415C36.1252 5.50415 41.1002 10.4792 41.1002 16.6042C41.0752 22.6042 36.3502 27.4792 30.4002 27.6792Z" stroke="#C6A45A" stroke-width="3.75" stroke-linecap="round" stroke-linejoin="round"/>
<path d="M17.8998 36.9042C11.8498 40.9542 11.8498 47.5541 17.8998 51.5791C24.7748 56.1792 36.0499 56.1792 42.9249 51.5791C48.9749 47.5291 48.9749 40.9292 42.9249 36.9042C36.0749 32.3292 24.7998 32.3292 17.8998 36.9042Z" stroke="#C6A45A" stroke-width="3.75" stroke-linecap="round" stroke-linejoin="round"/>
</svg>
