<svg width="34" height="35" viewBox="0 0 34 35" fill="none" xmlns="http://www.w3.org/2000/svg">
<rect x="0.687853" y="3.26741" width="30.6588" height="30.6588" rx="15.3294" transform="rotate(-4.11839 0.687853 3.26741)" fill="#C6A45A" fill-opacity="0.06"/>
<rect x="0.687853" y="3.26741" width="30.6588" height="30.6588" rx="15.3294" transform="rotate(-4.11839 0.687853 3.26741)" stroke="#C6A45A" stroke-width="0.786122"/>
<path d="M16.212 19.2532C16.1395 18.2464 15.4537 17.7851 14.2794 17.6332L13.2678 17.5074C12.6279 17.4211 12.0566 17.2352 12.0105 16.5954C11.9685 16.0121 12.4111 15.46 13.2861 15.397C14.1329 15.336 14.757 15.8586 14.8717 16.6637L15.9255 16.5878C15.7439 15.2484 14.6191 14.4687 13.2171 14.5697C11.8151 14.6706 10.8794 15.5987 10.9614 16.7372C11.0441 17.8851 11.9442 18.3026 12.9081 18.4224L13.9002 18.5401C14.6934 18.6532 15.0806 18.9091 15.1213 19.4736C15.1714 20.1699 14.5607 20.6206 13.7045 20.6822C12.6695 20.7567 12.0838 20.2409 11.9751 19.388L10.9213 19.4639C11.1029 20.8033 12.1552 21.6261 13.783 21.5089C15.4201 21.391 16.2967 20.4294 16.212 19.2532ZM22.0168 20.8214L23.1177 20.7421L20.0625 14.1714L18.924 14.2533L16.823 21.1954L17.8674 21.1202L18.3678 19.4006L21.2846 19.1906L22.0168 20.8214ZM19.5511 15.3431L20.9138 18.3756L18.618 18.5409L19.5511 15.3431Z" fill="#C6A45A"/>
</svg>
