<svg width="12" height="13" viewBox="0 0 12 13" fill="none" xmlns="http://www.w3.org/2000/svg">
<g clip-path="url(#clip0_34_100)">
<path d="M10.5546 5.73716L8.74222 7.56416L9.50246 10.0352C9.54257 10.1644 9.54372 10.3025 9.50577 10.4323C9.46781 10.5621 9.39244 10.6778 9.28907 10.765C9.18569 10.8522 9.05891 10.907 8.92456 10.9226C8.79022 10.9381 8.65428 10.9137 8.53373 10.8524L6.24642 9.68089L4.15525 11.1676C4.04473 11.2456 3.91369 11.2892 3.77851 11.2931C3.64332 11.297 3.51 11.2609 3.3952 11.1894C3.2804 11.1179 3.18922 11.0142 3.13306 10.8911C3.0769 10.7681 3.05826 10.6313 3.07945 10.4977L3.47716 7.94585L1.42113 6.3948C1.31247 6.31393 1.2301 6.20278 1.18436 6.07528C1.13862 5.94779 1.13154 5.80962 1.164 5.67812C1.19647 5.54662 1.26704 5.42763 1.36686 5.33607C1.46669 5.24451 1.59132 5.18446 1.72513 5.16346L4.25888 4.75904L5.0832 2.31354C5.12621 2.18524 5.20621 2.07253 5.31314 1.9896C5.42007 1.90668 5.54915 1.85724 5.68411 1.84752C5.81908 1.83781 5.95391 1.86824 6.07162 1.93499C6.18932 2.00174 6.28465 2.10183 6.34559 2.22264L7.51476 4.52461L10.0795 4.56192C10.2149 4.56354 10.3468 4.60511 10.4588 4.68142C10.5707 4.75773 10.6576 4.86538 10.7085 4.99088C10.7595 5.11638 10.7723 5.25413 10.7453 5.38686C10.7183 5.51959 10.6527 5.6414 10.5567 5.737L10.5546 5.73716Z" fill="#C6A45A"/>
</g>
<defs>
<clipPath id="clip0_34_100">
<rect width="11.0057" height="11.0057" fill="white" transform="translate(0.145508 1.55664) rotate(-4.11839)"/>
</clipPath>
</defs>
</svg>
