<svg width="60" height="61" viewBox="0 0 60 61" fill="none" xmlns="http://www.w3.org/2000/svg">
<g clip-path="url(#clip0_34_236)">
<path d="M5.09096 18.1043C2.98206 18.1043 1.26636 16.3887 1.26636 14.2799C1.26636 12.1711 2.98209 10.4554 5.09096 10.4554C7.19969 10.4554 8.91526 12.1711 8.91526 14.2799C8.91526 16.3887 7.19969 18.1043 5.09096 18.1043ZM5.09096 12.5291C4.12556 12.5291 3.34009 13.3145 3.34009 14.2799C3.34009 15.2452 4.12552 16.0306 5.09096 16.0306C6.05622 16.0306 6.84152 15.2452 6.84152 14.2799C6.84152 13.3146 6.05622 12.5291 5.09096 12.5291Z" fill="#C6A45A"/>
<path d="M37.4672 23.9599C35.3583 23.9599 33.6426 22.2444 33.6426 20.1358C33.6426 18.0269 35.3583 16.3112 37.4672 16.3112C39.5759 16.3112 41.2915 18.0269 41.2915 20.1358C41.2914 22.2444 39.5759 23.9599 37.4672 23.9599ZM37.4672 18.3849C36.5017 18.3849 35.7163 19.1703 35.7163 20.1358C35.7163 21.101 36.5017 21.8862 37.4672 21.8862C38.4324 21.8862 39.2177 21.1009 39.2177 20.1358C39.2177 19.1703 38.4324 18.3849 37.4672 18.3849Z" fill="#C6A45A"/>
<path d="M21.2791 13.5407C17.8211 13.5407 15.0078 10.7275 15.0078 7.26964C15.0078 3.81174 17.8211 0.998535 21.2791 0.998535C24.7368 0.998535 27.5499 3.81174 27.5499 7.26964C27.5499 10.7275 24.7368 13.5407 21.2791 13.5407ZM21.2791 3.07227C18.9646 3.07227 17.0815 4.9552 17.0815 7.26964C17.0815 9.58407 18.9646 11.467 21.2791 11.467C23.5934 11.467 25.4762 9.58407 25.4762 7.26964C25.4762 4.9552 23.5934 3.07227 21.2791 3.07227Z" fill="#C6A45A"/>
<path d="M53.6558 13.5407C50.1979 13.5407 47.3845 10.7275 47.3845 7.26964C47.3845 3.81174 50.1978 0.998535 53.6558 0.998535C57.1135 0.998535 59.9267 3.81174 59.9267 7.26964C59.9267 10.7275 57.1135 13.5407 53.6558 13.5407ZM53.6558 3.07227C51.3412 3.07227 49.4583 4.9552 49.4583 7.26964C49.4583 9.58407 51.3412 11.467 53.6558 11.467C55.9701 11.467 57.853 9.58407 57.853 7.26964C57.853 4.9552 55.9701 3.07227 53.6558 3.07227Z" fill="#C6A45A"/>
<path d="M16.8291 9.94847L15.8674 8.11108L7.39724 12.5441L8.35886 14.3815L16.8291 9.94847Z" fill="#C6A45A"/>
<path d="M35.911 18.1035L26.1941 9.974L24.8634 11.5645L34.5803 19.6941L35.911 18.1035Z" fill="#C6A45A"/>
<path d="M40.538 20.0001L39.2332 18.3882L49.104 10.3988L50.4087 12.0106L40.538 20.0001Z" fill="#C6A45A"/>
<path d="M7.44444 60.0097H2.73731C1.26838 60.0097 0.0732422 58.7981 0.0732422 57.3089V25.9027C0.0732422 24.4134 1.26838 23.2019 2.73731 23.2019H7.44444C8.91338 23.2019 10.1085 24.4134 10.1085 25.9027V57.3089C10.1085 58.7981 8.91338 60.0097 7.44444 60.0097ZM2.73731 25.2756C2.41174 25.2756 2.14698 25.5569 2.14698 25.9027V57.3089C2.14698 57.6546 2.41174 57.9359 2.73731 57.9359H7.44444C7.76998 57.9359 8.03474 57.6546 8.03474 57.3089V25.9027C8.03474 25.5569 7.76994 25.2756 7.44444 25.2756H2.73731Z" fill="#C6A45A"/>
<path d="M23.6324 60.0097H18.9251C17.4563 60.0097 16.2612 58.715 16.2612 57.1237V22.2212C16.2612 20.6298 17.4563 19.3352 18.9251 19.3352H23.6324C25.1013 19.3352 26.2963 20.6298 26.2963 22.2212V57.1237C26.2963 58.715 25.1013 60.0097 23.6324 60.0097ZM18.9251 21.409C18.6052 21.409 18.3349 21.7809 18.3349 22.2212V57.1238C18.3349 57.5641 18.6052 57.936 18.9251 57.936H23.6324C23.9523 57.936 24.2226 57.5641 24.2226 57.1238V22.2212C24.2226 21.7809 23.9523 21.4089 23.6324 21.4089L18.9251 21.409Z" fill="#C6A45A"/>
<path d="M39.8207 60.0097H35.1137C33.6446 60.0097 32.4495 58.9562 32.4495 57.6613V32.9053C32.4495 31.6104 33.6446 30.5569 35.1137 30.5569H39.8207C41.2897 30.5569 42.4849 31.6104 42.4849 32.9053V57.6613C42.4849 58.9562 41.2897 60.0097 39.8207 60.0097ZM35.1137 32.6306C34.7327 32.6306 34.5232 32.8369 34.5232 32.9053V57.6613C34.5232 57.7297 34.7327 57.9359 35.1137 57.9359H39.8207C40.2017 57.9359 40.4111 57.7297 40.4111 57.6613V32.9053C40.4111 32.8369 40.2017 32.6306 39.8207 32.6306H35.1137Z" fill="#C6A45A"/>
<path d="M56.0091 60.0097H51.3018C49.8329 60.0097 48.6379 58.715 48.6379 57.1237V22.2212C48.6379 20.6298 49.8329 19.3352 51.3018 19.3352H56.0091C57.4782 19.3352 58.6733 20.6298 58.6733 22.2212V57.1237C58.6733 58.715 57.4782 60.0097 56.0091 60.0097ZM51.3018 21.409C50.9819 21.409 50.7117 21.7809 50.7117 22.2212V57.1238C50.7117 57.5641 50.9819 57.936 51.3018 57.936H56.0091C56.3293 57.936 56.5996 57.5641 56.5996 57.1238V22.2212C56.5996 21.7809 56.3293 21.4089 56.0091 21.4089L51.3018 21.409Z" fill="#C6A45A"/>
</g>
<defs>
<clipPath id="clip0_34_236">
<rect width="60" height="60" fill="white" transform="translate(0 0.50415)"/>
</clipPath>
</defs>
</svg>
