<svg width="60" height="61" viewBox="0 0 60 61" fill="none" xmlns="http://www.w3.org/2000/svg">
<path fill-rule="evenodd" clip-rule="evenodd" d="M30 3.62915C31.0355 3.62915 31.875 4.46863 31.875 5.50415V8.00415C31.875 9.03968 31.0355 9.87915 30 9.87915C28.9645 9.87915 28.125 9.03968 28.125 8.00415V5.50415C28.125 4.46863 28.9645 3.62915 30 3.62915ZM10.9965 11.5007C11.7288 10.7685 12.9159 10.7685 13.6482 11.5007L14.6303 12.4828C15.3625 13.215 15.3625 14.4022 14.6303 15.1344C13.898 15.8667 12.7108 15.8667 11.9786 15.1344L10.9965 14.1523C10.2643 13.4201 10.2643 12.2329 10.9965 11.5007ZM49.0028 11.5013C49.735 12.2336 49.735 13.4207 49.0028 14.153L48.0207 15.1351C47.2885 15.8673 46.1012 15.8673 45.369 15.1351C44.6367 14.4028 44.6367 13.2157 45.369 12.4834L46.3512 11.5013C47.0835 10.7691 48.2705 10.7691 49.0028 11.5013ZM30 17.3792C22.7513 17.3792 16.875 23.2554 16.875 30.5042C16.875 37.7529 22.7513 43.6292 30 43.6292C37.2487 43.6292 43.125 37.7529 43.125 30.5042C43.125 23.2554 37.2487 17.3792 30 17.3792ZM13.125 30.5042C13.125 21.1844 20.6802 13.6292 30 13.6292C39.3198 13.6292 46.875 21.1844 46.875 30.5042C46.875 39.8239 39.3198 47.3792 30 47.3792C20.6802 47.3792 13.125 39.8239 13.125 30.5042ZM3.125 30.5042C3.125 29.4687 3.96448 28.6292 5 28.6292H7.5C8.53552 28.6292 9.375 29.4687 9.375 30.5042C9.375 31.5396 8.53552 32.3792 7.5 32.3792H5C3.96448 32.3792 3.125 31.5396 3.125 30.5042ZM50.625 30.5042C50.625 29.4687 51.4645 28.6292 52.5 28.6292H55C56.0355 28.6292 56.875 29.4687 56.875 30.5042C56.875 31.5396 56.0355 32.3792 55 32.3792H52.5C51.4645 32.3792 50.625 31.5396 50.625 30.5042ZM45.369 45.8731C46.1012 45.1409 47.2885 45.1409 48.0207 45.8731L49.0028 46.8554C49.735 47.5877 49.735 48.7747 49.0028 49.5069C48.2705 50.2392 47.0835 50.2392 46.3512 49.5069L45.369 48.5249C44.6367 47.7926 44.6367 46.6054 45.369 45.8731ZM14.6303 45.8739C15.3625 46.6061 15.3625 47.7934 14.6303 48.5257L13.6482 49.5077C12.9159 50.2399 11.7288 50.2399 10.9965 49.5077C10.2643 48.7754 10.2643 47.5882 10.9965 46.8559L11.9786 45.8739C12.7108 45.1417 13.898 45.1417 14.6303 45.8739ZM30 51.1292C31.0355 51.1292 31.875 51.9687 31.875 53.0042V55.5042C31.875 56.5396 31.0355 57.3792 30 57.3792C28.9645 57.3792 28.125 56.5396 28.125 55.5042V53.0042C28.125 51.9687 28.9645 51.1292 30 51.1292Z" fill="#C6A45A"/>
</svg>
