<svg width="79" height="80" viewBox="0 0 79 80" fill="none" xmlns="http://www.w3.org/2000/svg">
<circle cx="39.2094" cy="40.1491" r="39.1974" fill="white"/>
<path d="M35.161 26.3608L36.4999 28.7599C37.7082 30.925 37.2232 33.7653 35.3201 35.6684C35.3201 35.6684 33.0119 37.9769 37.197 42.1621C41.3808 46.346 43.6908 44.0391 43.6908 44.0391C45.5939 42.1359 48.4341 41.6509 50.5992 42.8592L52.9983 44.1981C56.2678 46.0227 56.6538 50.6075 53.7802 53.4813C52.0534 55.2081 49.938 56.5517 47.5996 56.6402C43.6631 56.7896 36.9779 55.7934 30.2719 49.0873C23.5659 42.3812 22.5696 35.6961 22.7188 31.7596C22.8075 29.4211 24.1511 27.3058 25.8779 25.579C28.7515 22.7053 33.3364 23.0915 35.161 26.3608Z" fill="#C6A45A"/>
</svg>
