<svg width="48" height="44" viewBox="0 0 48 44" fill="none" xmlns="http://www.w3.org/2000/svg">
<rect x="0.538574" width="47.0263" height="43.8912" rx="21.9456" fill="white" fill-opacity="0.1"/>
<path d="M29.7839 30.3047V27.3153C28.8159 27.9635 27.8739 28.2848 26.9594 28.2848C26.5282 28.2848 26.0464 28.1488 25.5066 27.884C25.184 27.6655 24.9944 27.4253 24.938 27.1561C24.7788 26.832 24.6804 26.1317 24.6804 25.0523V20.2903H29.0213V17.3964H24.6804V12.5404H22.1164C21.9008 13.6719 21.6852 14.4764 21.4682 14.9611C21.2019 15.5544 20.7707 16.0927 20.1789 16.5759C19.6296 17.0379 18.9991 17.3936 18.3196 17.625V20.2903H20.3395V26.832C20.3395 27.5844 20.4452 28.2269 20.6622 28.7666C20.8228 29.1978 21.1455 29.6276 21.6331 30.0587C22.0079 30.4379 22.5462 30.7591 23.2465 31.0282C24.1074 31.2453 24.8584 31.3509 25.5066 31.3509C26.2591 31.3509 26.9594 31.2699 27.6047 31.1092C28.3652 30.9443 29.0987 30.6735 29.7839 30.3047Z" fill="#C6A45A"/>
</svg>
