<svg width="59" height="59" viewBox="0 0 59 59" fill="none" xmlns="http://www.w3.org/2000/svg">
<rect x="0.75" y="0.5" width="58" height="58" rx="8" fill="white" fill-opacity="0.3"/>
<path d="M39.6906 24.4009C39.7058 24.6213 39.7058 24.8417 39.7058 25.0641C39.7058 31.8415 34.5464 39.6578 25.1121 39.6578V39.6538C22.3252 39.6579 19.5961 38.8596 17.25 37.3544C17.6552 37.4031 18.0625 37.4275 18.4708 37.4285C20.7804 37.4305 23.0239 36.6556 24.8409 35.2286C22.6461 35.187 20.7215 33.756 20.0491 31.6668C20.8179 31.8151 21.6101 31.7846 22.3648 31.5784C19.9719 31.095 18.2504 28.9926 18.2504 26.551C18.2504 26.5287 18.2504 26.5073 18.2504 26.486C18.9634 26.8831 19.7617 27.1035 20.5783 27.1279C18.3245 25.6217 17.6298 22.6235 18.9908 20.2794C21.5949 23.4838 25.4371 25.4318 29.5616 25.6379C29.1482 23.8565 29.7129 21.9898 31.0455 20.7375C33.1113 18.7956 36.3603 18.8951 38.3022 20.9599C39.4509 20.7334 40.5518 20.3119 41.5594 19.7147C41.1765 20.902 40.3751 21.9105 39.3046 22.5514C40.3213 22.4316 41.3146 22.1594 42.25 21.744C41.5614 22.7759 40.694 23.6747 39.6906 24.4009Z" fill="#C6A45A"/>
</svg>
