<svg width="48" height="44" viewBox="0 0 48 44" fill="none" xmlns="http://www.w3.org/2000/svg">
<rect x="0.375488" width="47.0263" height="43.8912" rx="21.9456" fill="white" fill-opacity="0.1"/>
<path d="M36.8575 21.8646C36.8575 21.8009 36.8575 21.7285 36.8546 21.6446C36.8517 21.4101 36.8459 21.1467 36.8401 20.8659C36.817 20.0582 36.7764 19.2534 36.7127 18.495C36.6259 17.45 36.4985 16.5786 36.3248 15.9244C36.1416 15.2417 35.7823 14.619 35.2829 14.1186C34.7836 13.6182 34.1616 13.2577 33.4792 13.073C32.66 12.853 31.0563 12.7169 28.7983 12.633C27.7243 12.5925 26.5751 12.5664 25.4259 12.5519C25.0235 12.5461 24.65 12.5433 24.3142 12.5404H23.4632C23.1274 12.5433 22.7539 12.5461 22.3516 12.5519C21.2023 12.5664 20.0531 12.5925 18.9791 12.633C16.7211 12.7198 15.1145 12.8559 14.2982 13.073C13.6156 13.2572 12.9934 13.6176 12.494 14.1181C11.9945 14.6185 11.6354 15.2414 11.4526 15.9244C11.276 16.5786 11.1515 17.45 11.0647 18.495C11.001 19.2534 10.9604 20.0582 10.9373 20.8659C10.9286 21.1467 10.9257 21.4101 10.9228 21.6446C10.9228 21.7285 10.9199 21.8009 10.9199 21.8646V22.0267C10.9199 22.0904 10.9199 22.1627 10.9228 22.2467C10.9257 22.4812 10.9315 22.7446 10.9373 23.0254C10.9604 23.833 11.001 24.6378 11.0647 25.3962C11.1515 26.4413 11.2789 27.3126 11.4526 27.9668C11.8231 29.3535 12.9116 30.4477 14.2982 30.8182C15.1145 31.0382 16.7211 31.1743 18.9791 31.2582C20.0531 31.2988 21.2023 31.3248 22.3516 31.3393C22.7539 31.3451 23.1274 31.348 23.4632 31.3509H24.3142C24.65 31.348 25.0235 31.3451 25.4259 31.3393C26.5751 31.3248 27.7243 31.2988 28.7983 31.2582C31.0563 31.1714 32.6629 31.0353 33.4792 30.8182C34.8659 30.4477 35.9543 29.3564 36.3248 27.9668C36.5014 27.3126 36.6259 26.4413 36.7127 25.3962C36.7764 24.6378 36.817 23.833 36.8401 23.0254C36.8488 22.7446 36.8517 22.4812 36.8546 22.2467C36.8546 22.1627 36.8575 22.0904 36.8575 22.0267V21.8646ZM34.7732 22.0151C34.7732 22.0759 34.7732 22.1425 34.7703 22.2206C34.7674 22.4464 34.7616 22.6954 34.7559 22.9646C34.7356 23.7346 34.6951 24.5046 34.6343 25.2197C34.5561 26.1518 34.4461 26.916 34.31 27.4284C34.1306 28.0971 33.6037 28.6269 32.9379 28.8034C32.33 28.9656 30.7986 29.0958 28.7173 29.174C27.6635 29.2145 26.5288 29.2406 25.3969 29.255C25.0003 29.2608 24.6327 29.2637 24.3027 29.2637H23.4747L22.3805 29.255C21.2486 29.2406 20.1168 29.2145 19.0601 29.174C16.9788 29.0929 15.4445 28.9656 14.8395 28.8034C14.1737 28.624 13.6468 28.0971 13.4674 27.4284C13.3313 26.916 13.2213 26.1518 13.1431 25.2197C13.0824 24.5046 13.0447 23.7346 13.0216 22.9646C13.0129 22.6954 13.01 22.4435 13.0071 22.2206C13.0071 22.1425 13.0042 22.073 13.0042 22.0151V21.8761C13.0042 21.8154 13.0042 21.7488 13.0071 21.6706C13.01 21.4448 13.0158 21.1959 13.0216 20.9266C13.0418 20.1566 13.0824 19.3866 13.1431 18.6716C13.2213 17.7395 13.3313 16.9752 13.4674 16.4628C13.6468 15.7941 14.1737 15.2644 14.8395 15.0878C15.4474 14.9257 16.9788 14.7954 19.0601 14.7173C20.1139 14.6767 21.2486 14.6507 22.3805 14.6362C22.7771 14.6304 23.1447 14.6275 23.4747 14.6275H24.3027L25.3969 14.6362C26.5288 14.6507 27.6607 14.6767 28.7173 14.7173C30.7986 14.7983 32.3329 14.9257 32.9379 15.0878C33.6037 15.2673 34.1306 15.7941 34.31 16.4628C34.4461 16.9752 34.5561 17.7395 34.6343 18.6716C34.6951 19.3866 34.7327 20.1566 34.7559 20.9266C34.7645 21.1959 34.7674 21.4477 34.7703 21.6706C34.7703 21.7488 34.7732 21.8182 34.7732 21.8761V22.0151ZM21.3123 25.8247L28.0283 21.9167L21.3123 18.0666V25.8247Z" fill="#C6A45A"/>
</svg>
